HIERARCHY
ROOT Hips
{
	OFFSET 0.000000 0.000000 0.000000
	CHANNELS 6 Xposition Yposition Zposition Zrotation Yrotation Xrotation 
	JOINT LHipJoint
	{
		OFFSET 0.000000 0.000000 0.000000
		CHANNELS 3 Zrotation Yrotation Xrotation
		JOINT LeftUpLeg
		{
			OFFSET 1.363060 -1.794630 0.839290
			CHANNELS 3 Zrotation Yrotation Xrotation
			JOINT LeftLeg
			{
				OFFSET 2.448110 -6.726130 0.000000
				CHANNELS 3 Zrotation Yrotation Xrotation
				JOINT LeftFoot
				{
					OFFSET 2.562200 -7.039590 0.000000
					CHANNELS 3 Zrotation Yrotation Xrotation
					JOINT LeftToeBase
					{
						OFFSET 0.157640 -0.433110 2.322550
						CHANNELS 3 Zrotation Yrotation Xrotation
						End Site
						{
							OFFSET 0.000000 0.000000 0.000000
						}
					}
				}
			}
		}
	}
	JOINT RHipJoint
	{
		OFFSET 0.000000 0.000000 0.000000
		CHANNELS 3 Zrotation Yrotation Xrotation
		JOINT RightUpLeg
		{
			OFFSET -1.305520 -1.794630 0.839290
			CHANNELS 3 Zrotation Yrotation Xrotation
			JOINT RightLeg
			{
				OFFSET -2.542530 -6.985550 0.000000
				CHANNELS 3 Zrotation Yrotation Xrotation
				JOINT RightFoot
				{
					OFFSET -2.568260 -7.056230 0.000000
					CHANNELS 3 Zrotation Yrotation Xrotation
					JOINT RightToeBase
					{
						OFFSET -0.164730 -0.452590 2.363150
						CHANNELS 3 Zrotation Yrotation Xrotation
						End Site
						{
							OFFSET 0.000000 0.000000 0.000000
						}
					}
				}
			}
		}
	}
	JOINT LowerBack
	{
		OFFSET 0.000000 0.000000 0.000000
		CHANNELS 3 Zrotation Yrotation Xrotation
		JOINT Spine
		{
			OFFSET 0.028270 2.035590 -0.193380
			CHANNELS 3 Zrotation Yrotation Xrotation
			JOINT Spine1
			{
				OFFSET 0.056720 2.048850 -0.042750
				CHANNELS 3 Zrotation Yrotation Xrotation
				JOINT Neck
				{
					OFFSET 0.000000 0.000000 0.000000
					CHANNELS 3 Zrotation Yrotation Xrotation
					JOINT Neck1
					{
						OFFSET -0.054170 1.746240 0.172020
						CHANNELS 3 Zrotation Yrotation Xrotation
						JOINT Head
						{
							OFFSET 0.104070 1.761360 -0.123970
							CHANNELS 3 Zrotation Yrotation Xrotation
							End Site
							{
								OFFSET 0.000000 0.000000 0.000000
							}
						}
					}
				}
				JOINT LeftShoulder
				{
					OFFSET 0.000000 0.000000 0.000000
					CHANNELS 3 Zrotation Yrotation Xrotation
					JOINT LeftArm
					{
						OFFSET 3.362410 1.200890 -0.311210
						CHANNELS 3 Zrotation Yrotation Xrotation
						JOINT LeftForeArm
						{
							OFFSET 4.983000 -0.000000 -0.000000
							CHANNELS 3 Zrotation Yrotation Xrotation
							JOINT LeftHand
							{
								OFFSET 3.483560 -0.000000 -0.000000
								CHANNELS 3 Zrotation Yrotation Xrotation
								JOINT LeftFingerBase
								{
									OFFSET 0.000000 0.000000 0.000000
									CHANNELS 3 Zrotation Yrotation Xrotation
									JOINT LeftHandIndex1
									{
										OFFSET 0.715260 -0.000000 -0.000000
										CHANNELS 3 Zrotation Yrotation Xrotation
										End Site
										{
											OFFSET 0.000000 0.000000 0.000000
										}
									}
								}
								JOINT LThumb
								{
									OFFSET 0.000000 0.000000 0.000000
									CHANNELS 3 Zrotation Yrotation Xrotation
									End Site
									{
										OFFSET 0.000000 0.000000 0.000000
									}
								}
							}
						}
					}
				}
				JOINT RightShoulder
				{
					OFFSET 0.000000 0.000000 0.000000
					CHANNELS 3 Zrotation Yrotation Xrotation
					JOINT RightArm
					{
						OFFSET -3.136600 1.374050 -0.404650
						CHANNELS 3 Zrotation Yrotation Xrotation
						JOINT RightForeArm
						{
							OFFSET -5.241900 -0.000000 -0.000000
							CHANNELS 3 Zrotation Yrotation Xrotation
							JOINT RightHand
							{
								OFFSET -3.444170 -0.000000 -0.000000
								CHANNELS 3 Zrotation Yrotation Xrotation
								JOINT RightFingerBase
								{
									OFFSET 0.000000 0.000000 0.000000
									CHANNELS 3 Zrotation Yrotation Xrotation
									JOINT RightHandIndex1
									{
										OFFSET -0.622530 -0.000000 -0.000000
										CHANNELS 3 Zrotation Yrotation Xrotation
										End Site
										{
											OFFSET 0.000000 0.000000 0.000000
										}
									}
								}
								JOINT RThumb
								{
									OFFSET 0.000000 0.000000 0.000000
									CHANNELS 3 Zrotation Yrotation Xrotation
									End Site
									{
										OFFSET 0.000000 0.000000 0.000000
									}
								}
							}
						}
					}
				}
			}
		}
	}
}
MOTION
Frames: 12
Frame Time: 0.008333
-4.762156 17.236125 0.401855 6.714106 -61.252812 7.735335 -9.114000 1.850254 7.408368 -7.644331 -12.855706 -16.278334 -2.981739 -2.010495 -1.457914 -0.414486 -1.999118 1.251828 0.122600 -0.000000 -43.984300 10.611291 -2.386260 -0.007698 6.400964 -22.409904 -15.583684 1.847201 0.813827 6.056362 -4.263389 -21.305544 -4.496828 -2.706299 -0.000000 -55.134200 -2.226621 2.447073 -9.329127 -1.212848 2.387265 -4.753395 -5.365201 2.454474 -1.209460 3.503245 3.983825 -0.425473 -4.108644 -0.368162 1.912054 0.000000 0.000000 0.000000 -5.043034 8.169305 -1.241518 -77.704365 -37.616666 36.684291 -177.232021 -64.913313 179.849317 16.146828 -21.021575 -3.411376 -0.756191 1.707243 -0.000000 0.000000 0.000000 0.000000 0.000000 0.000000 0.000000 7.879339 9.393814 2.791554 43.520405 25.459573 1.013384 0.526158 57.853857 0.042183 6.696386 -5.737474 -0.325775 -0.114084 -0.249530 -0.000000 0.000000 0.000000 0.000000 0.000000 0.000000 0.000000 
-4.764286 17.228578 0.394615 7.021020 -61.977541 7.542940 -9.118748 1.877241 7.376310 -7.825775 -12.472835 -16.504841 -2.989189 -2.018137 -1.251506 -0.381964 -1.824240 0.961107 0.144801 0.000000 -43.862100 10.601815 -2.348190 0.121574 6.303733 -21.965968 -16.056217 1.846814 0.789650 6.596287 -4.241687 -20.993908 -4.871768 -2.529000 0.000000 -55.034100 -2.249711 2.342144 -9.431357 -1.248095 2.277389 -4.770021 -5.570415 2.348968 -1.200986 4.024776 3.635585 -0.543134 -4.248820 -0.376067 1.874891 0.000000 0.000000 0.000000 -4.909368 8.208057 -1.142887 -76.950901 -37.215505 36.105021 -177.185548 -64.822245 179.850068 16.264289 -21.071055 -3.444997 -0.765199 1.709818 -0.000000 0.000000 0.000000 0.000000 0.000000 0.000000 0.000000 8.959384 9.015647 2.672357 45.270191 24.829364 2.254496 0.557706 58.933816 0.042275 6.810399 -5.791519 -0.334880 -0.115396 -0.244250 -0.000000 0.000000 0.000000 0.000000 0.000000 0.000000 0.000000 
-4.766916 17.220857 0.386019 7.381243 -62.723827 7.304242 -9.123834 1.905068 7.335767 -8.032806 -12.051660 -16.742162 -3.000578 -2.025000 -1.032713 -0.350605 -1.664352 0.672093 0.163300 0.000000 -43.751100 10.594681 -2.308095 0.259316 6.183858 -21.486219 -16.527181 1.841988 0.766478 7.131517 -4.220525 -20.680946 -5.252667 -2.353900 -0.000000 -54.922201 -2.291040 2.233473 -9.529063 -1.281332 2.166990 -4.788829 -5.751656 2.241655 -1.206588 4.515736 3.309150 -0.656323 -4.381335 -0.383654 1.839428 0.000000 0.000000 0.000000 -4.743615 8.216618 -1.063831 -76.244794 -36.697578 35.493272 -177.158618 -64.727561 179.850189 16.409366 -21.126059 -3.484720 -0.772970 1.710594 -0.000000 0.000000 0.000000 0.000000 0.000000 0.000000 0.000000 9.979652 8.653018 2.548177 46.965732 24.133619 3.471155 0.588380 59.809387 0.041338 6.750402 -5.616888 -0.321577 -0.114681 -0.241849 -0.000000 0.000000 0.000000 0.000000 0.000000 0.000000 0.000000 
-4.770051 17.213109 0.376051 7.794160 -63.495032 7.027664 -9.129591 1.933618 7.288643 -8.260066 -11.594072 -17.003107 -3.015477 -2.031352 -0.799968 -0.319904 -1.514396 0.384394 0.178999 0.000000 -43.640500 10.588640 -2.266883 0.410104 6.049499 -20.954597 -17.009690 1.832119 0.744618 7.665276 -4.202602 -20.377305 -5.639484 -2.183201 -0.000000 -54.785000 -2.349452 2.122395 -9.629627 -1.312905 2.056988 -4.809654 -5.910612 2.133500 -1.218448 4.974870 2.987590 -0.774204 -4.504573 -0.390755 1.803324 0.000000 0.000000 0.000000 -4.549516 8.214535 -1.005539 -75.596848 -36.088933 34.873030 -177.149315 -64.644159 179.849941 16.569637 -21.178429 -3.526652 -0.779289 1.709056 -0.000000 0.000000 0.000000 0.000000 0.000000 0.000000 0.000000 10.932986 8.294288 2.419905 48.606464 23.390792 4.675431 0.619271 60.496493 0.039589 6.550435 -5.258442 -0.291165 -0.112237 -0.241675 -0.000000 0.000000 0.000000 0.000000 0.000000 0.000000 0.000000 
-4.772844 17.205519 0.364501 8.254134 -64.288469 6.698348 -9.138348 1.961220 7.228009 -8.504651 -11.097177 -17.260399 -3.032492 -2.035619 -0.557181 -0.289858 -1.375136 0.099081 0.191900 0.000000 -43.534200 10.582370 -2.224379 0.561806 5.897860 -20.397356 -17.477020 1.818986 0.722694 8.190584 -4.183382 -20.069137 -6.022729 -2.017300 -0.000000 -54.634700 -2.420225 2.010297 -9.711422 -1.340957 1.949273 -4.830973 -6.041805 2.026076 -1.245999 5.395297 2.686826 -0.888571 -4.614447 -0.397172 1.768936 0.000000 0.000000 0.000000 -4.321636 8.181739 -0.966195 -75.020881 -35.369026 34.237763 -177.160956 -64.577636 179.849445 16.723408 -21.225691 -3.565709 -0.782783 1.704811 -0.000000 0.000000 0.000000 0.000000 0.000000 0.000000 0.000000 11.790949 7.958183 2.291354 50.215064 22.572288 5.831228 0.650104 61.020433 0.037406 6.274182 -4.780240 -0.252046 -0.108831 -0.242864 -0.000000 0.000000 0.000000 0.000000 0.000000 0.000000 0.000000 
-4.775456 17.198183 0.351480 8.762732 -65.106754 6.327170 -9.150081 1.987892 7.157738 -8.759329 -10.569112 -17.530760 -3.050978 -2.038190 -0.301420 -0.259614 -1.239050 -0.185540 0.202801 0.000000 -43.419100 10.574591 -2.181351 0.719680 5.738298 -19.798251 -17.947770 1.802039 0.700937 8.713866 -4.166185 -19.769322 -6.403235 -1.858000 -0.000000 -54.459500 -2.499574 1.898422 -9.785378 -1.365968 1.844174 -4.852428 -6.149783 1.920007 -1.278225 5.778466 2.389483 -1.010324 -4.710488 -0.402785 1.733365 0.000000 0.000000 0.000000 -4.073023 8.143829 -0.944377 -74.511614 -34.580646 33.607278 -177.188769 -64.538586 179.848974 16.861509 -21.261836 -3.598892 -0.783689 1.697728 -0.000000 0.000000 0.000000 0.000000 0.000000 0.000000 0.000000 12.555404 7.631808 2.164095 51.787017 21.706296 6.946862 0.681990 61.389970 0.035011 5.961064 -4.236242 -0.210525 -0.104783 -0.244660 -0.000000 0.000000 0.000000 0.000000 0.000000 0.000000 0.000000 
-4.777487 17.191256 0.336998 9.317297 -65.949680 5.913414 -9.165574 2.012825 7.077607 -9.018669 -10.015899 -17.811474 -3.069866 -2.038615 -0.033099 -0.228567 -1.101653 -0.470631 0.212500 -0.000001 -43.291200 10.564005 -2.137931 0.880879 5.574877 -19.161894 -18.421389 1.781933 0.678730 9.236951 -4.150676 -19.478120 -6.777501 -1.706300 -0.000000 -54.261700 -2.581815 1.787759 -9.848746 -1.387563 1.742047 -4.872413 -6.237277 1.815913 -1.310091 6.124768 2.089147 -1.144204 -4.791806 -0.407482 1.695315 0.000000 0.000000 0.000000 -3.817648 8.112608 -0.936889 -74.059667 -33.752826 32.988527 -177.229373 -64.534041 179.848703 16.975928 -21.284783 -3.624208 -0.782061 1.687854 -0.000000 0.000000 0.000000 0.000000 0.000000 0.000000 0.000000 13.224531 7.311540 2.040571 53.322465 20.808461 8.014371 0.715491 61.613632 0.032646 5.652598 -3.679161 -0.171501 -0.100501 -0.246363 -0.000000 0.000000 0.000000 0.000000 0.000000 0.000000 0.000000 
-4.778452 17.184786 0.321108 9.915221 -66.814890 5.450775 -9.185991 2.035079 6.985231 -9.277570 -9.441264 -18.089491 -3.087898 -2.036065 0.245977 -0.196371 -0.960492 -0.756039 0.220900 -0.000000 -43.152099 10.549601 -2.094089 1.039084 5.409117 -18.501645 -18.886844 1.759698 0.655222 9.758067 -4.134934 -19.191037 -7.139183 -1.562999 0.000000 -54.051300 -2.660211 1.679660 -9.892453 -1.404619 1.643820 -4.889769 -6.304125 1.714818 -1.343531 6.433623 1.791310 -1.287035 -4.857896 -0.411233 1.655621 0.000000 0.000000 0.000000 -3.562623 8.080354 -0.940483 -73.656519 -32.889368 32.371924 -177.281410 -64.559622 179.848688 17.058791 -21.296950 -3.640365 -0.777676 1.675539 -0.000000 0.000000 0.000000 0.000000 0.000000 0.000000 0.000000 13.794960 7.002488 1.924317 54.823220 19.880410 9.012826 0.750630 61.701067 0.030517 5.385682 -3.154641 -0.138181 -0.096408 -0.247411 -0.000000 0.000000 0.000000 0.000000 0.000000 0.000000 0.000000 
-4.778202 17.178846 0.303981 10.556286 -67.701857 4.939143 -9.211568 2.054350 6.881525 -9.531131 -8.851285 -18.363627 -3.104258 -2.030467 0.534225 -0.162537 -0.811351 -1.041703 0.228500 -0.000000 -43.001401 10.530638 -2.050045 1.192940 5.245115 -17.820521 -19.346188 1.735888 0.629974 10.280091 -4.118896 -18.908993 -7.486075 -1.428600 -0.000000 -53.832500 -2.729130 1.575052 -9.917027 -1.416871 1.549580 -4.903482 -6.353753 1.617131 -1.373900 6.707468 1.491060 -1.441726 -4.909719 -0.414047 1.613407 0.000000 0.000000 0.000000 -3.322835 8.055181 -0.951938 -73.285368 -32.014470 31.756986 -177.340830 -64.612544 179.848993 17.111762 -21.300892 -3.648159 -0.771077 1.661269 -0.000000 0.000000 0.000000 0.000000 0.000000 0.000000 0.000000 14.275010 6.699451 1.817329 56.281677 18.942028 9.936175 0.787890 61.656194 0.028723 5.178652 -2.693120 -0.111565 -0.092673 -0.247442 0.000000 0.000000 0.000000 0.000000 0.000000 0.000000 0.000000 
-4.776872 17.173431 0.285818 11.245945 -68.611713 4.382846 -9.241450 2.070878 6.771249 -9.775837 -8.255592 -18.648354 -3.118775 -2.022510 0.831811 -0.126307 -0.647537 -1.327776 0.236000 -0.000000 -42.834800 10.506724 -2.006119 1.347397 5.088070 -17.107637 -19.818295 1.710072 0.602969 10.811242 -4.105012 -18.640619 -7.819601 -1.303799 0.000000 -53.601800 -2.784450 1.474345 -9.934529 -1.425219 1.458434 -4.912238 -6.394463 1.522599 -1.386697 6.952275 1.168118 -1.620862 -4.949145 -0.415923 1.565101 0.000000 0.000000 0.000000 -3.125129 8.071571 -0.967912 -72.916256 -31.188501 31.159208 -177.400140 -64.699644 179.849725 17.147709 -21.298034 -3.650982 -0.763703 1.645469 -0.000000 0.000000 0.000000 0.000000 0.000000 0.000000 0.000000 14.684526 6.383404 1.718633 57.684570 18.036506 10.798795 0.828438 61.476850 0.027253 5.030032 -2.310216 -0.091253 -0.089168 -0.246276 -0.000000 0.000000 0.000000 0.000000 0.000000 0.000000 0.000000 
-4.774152 17.168507 0.266731 11.985433 -69.541301 3.770211 -9.276192 2.084292 6.651875 -10.009829 -7.654220 -18.926408 -3.130731 -2.011787 1.133166 -0.087709 -0.468726 -1.611980 0.243300 0.000000 -42.663201 10.477804 -1.962203 1.496286 4.936864 -16.379042 -20.288928 1.683344 0.573563 11.348611 -4.090662 -18.378024 -8.135580 -1.188100 -0.000001 -53.372800 -2.822039 1.378388 -9.935807 -1.428591 1.371044 -4.916200 -6.424707 1.431783 -1.389837 7.168806 0.836910 -1.814458 -4.977313 -0.416983 1.513332 0.000000 0.000000 0.000000 -2.970319 8.106012 -0.985988 -72.541513 -30.387293 30.557540 -177.460221 -64.806925 179.850755 17.169347 -21.296598 -3.650731 -0.755503 1.628747 -0.000000 0.000000 0.000000 0.000000 0.000000 0.000000 0.000000 15.026741 6.064654 1.630972 59.029550 17.154105 11.577185 0.871863 61.173884 0.026118 4.942721 -2.015967 -0.076747 -0.085989 -0.243854 -0.000000 0.000000 0.000000 0.000000 0.000000 0.000000 0.000000 
-4.770238 17.164015 0.246901 12.785514 -70.489923 3.094554 -9.315063 2.095055 6.525732 -10.232453 -7.050949 -19.201384 -3.140231 -1.998854 1.435070 -0.046446 -0.271435 -1.892159 0.250600 0.000000 -42.489000 10.444238 -1.918477 1.641657 4.792306 -15.632256 -20.764582 1.655515 0.541803 11.895248 -4.076460 -18.123424 -8.434168 -1.081400 0.000000 -53.146100 -2.840483 1.287276 -9.926416 -1.427492 1.286877 -4.915221 -6.448545 1.344422 -1.378710 7.361115 0.492448 -2.025085 -4.996190 -0.417309 1.457268 0.000000 0.000000 0.000000 -2.870466 8.169091 -1.004218 -72.143130 -29.631824 29.953451 -177.517724 -64.931030 179.852049 17.189731 -21.300838 -3.651100 -0.747400 1.611561 -0.000000 0.000000 0.000000 0.000000 0.000000 0.000000 0.000000 15.316113 5.736717 1.553664 60.307402 16.312915 12.274914 0.918515 60.752357 0.025227 4.900223 -1.806267 -0.067046 -0.082926 -0.240272 -0.000000 0.000000 0.000000 0.000000 0.000000 0.000000 0.000000 
